<svg width="24" height="24" viewBox="0 0 24 24" fill="none" xmlns="http://www.w3.org/2000/svg">
<path d="M5 14L3.70711 15.2929C3.07714 15.9229 2 15.4767 2 14.5858V14M5 4H4C2.89543 4 2 4.89543 2 6V7M12 4H13C14.1046 4 15 4.89543 15 6V7M15 10V11C15 12.1046 14.1046 13 13 13H12M7 4H10M2 9V12M10 13H7" stroke="white" stroke-width="2"/>
<path d="M19 10H20C21.1046 10 22 10.8954 22 12V13M19 20L20.2929 21.2929C20.9229 21.9229 22 21.4767 22 20.5858V20M9 17V17C9 18.1046 9.89543 19 11 19H12M22 15V18M14 19H17" stroke="white" stroke-width="2"/>
</svg>
