<svg fill="none" width="136" height="12" viewBox="0 0 136 12" xmlns="http://www.w3.org/2000/svg">
<rect fill="#ccc" width="136" height="12" x="0" y="0"/>
<rect fill="#777" width="6" height="6" y="0" x="6"/>
<rect fill="#777" width="6" height="6" y="0" x="18"/>
<rect fill="#777" width="6" height="6" y="0" x="30"/>
<rect fill="#777" width="6" height="6" y="0" x="42"/>
<rect fill="#777" width="6" height="6" y="0" x="54"/>
<rect fill="#777" width="6" height="6" y="0" x="66"/>
<rect fill="#777" width="6" height="6" y="0" x="78"/>
<rect fill="#777" width="6" height="6" y="0" x="90"/>
<rect fill="#777" width="6" height="6" y="0" x="102"/>
<rect fill="#777" width="6" height="6" y="0" x="114"/>
<rect fill="#777" width="6" height="6" y="0" x="126"/>
<rect fill="#777" width="6" height="6" y="6" x="0"/>
<rect fill="#777" width="6" height="6" y="6" x="12"/>
<rect fill="#777" width="6" height="6" y="6" x="24"/>
<rect fill="#777" width="6" height="6" y="6" x="36"/>
<rect fill="#777" width="6" height="6" y="6" x="48"/>
<rect fill="#777" width="6" height="6" y="6" x="60"/>
<rect fill="#777" width="6" height="6" y="6" x="72"/>
<rect fill="#777" width="6" height="6" y="6" x="84"/>
<rect fill="#777" width="6" height="6" y="6" x="96"/>
<rect fill="#777" width="6" height="6" y="6" x="108"/>
<rect fill="#777" width="6" height="6" y="6" x="120"/>
<rect fill="#777" width="6" height="6" y="6" x="132"/>
</svg>
