<?xml version="1.0" encoding="utf-8"?>
<svg width="24px" height="24px" viewBox="0 0 24 24" fill="none" xmlns="http://www.w3.org/2000/svg">
<path d="M16.21 18.25H7.78999C6.13239 18.25 4.54268 17.5915 3.37058 16.4194C2.19847 15.2473 1.53999 13.6576 1.53999 12C1.53999 10.3424 2.19847 8.75269 3.37058 7.58058C4.54268 6.40848 6.13239 5.75 7.78999 5.75H16.21C17.8676 5.75 19.4573 6.40848 20.6294 7.58058C21.8015 8.75269 22.46 10.3424 22.46 12C22.46 13.6576 21.8015 15.2473 20.6294 16.4194C19.4573 17.5915 17.8676 18.25 16.21 18.25ZM7.78999 7.25C6.53021 7.25 5.32203 7.75045 4.43124 8.64124C3.54044 9.53204 3.03999 10.7402 3.03999 12C3.03999 13.2598 3.54044 14.468 4.43124 15.3588C5.32203 16.2496 6.53021 16.75 7.78999 16.75H16.21C17.4698 16.75 18.678 16.2496 19.5688 15.3588C20.4596 14.468 20.96 13.2598 20.96 12C20.96 10.7402 20.4596 9.53204 19.5688 8.64124C18.678 7.75045 17.4698 7.25 16.21 7.25H7.78999Z" fill="#ffffff"/>
<path d="M6.46999 14.33C6.27107 14.33 6.08031 14.251 5.93966 14.1103C5.799 13.9697 5.71999 13.7789 5.71999 13.58V10.42C5.71999 10.2211 5.799 10.0303 5.93966 9.88967C6.08031 9.74902 6.27107 9.67 6.46999 9.67C6.6689 9.67 6.85966 9.74902 7.00032 9.88967C7.14097 10.0303 7.21999 10.2211 7.21999 10.42V13.58C7.2174 13.7781 7.13755 13.9674 6.99745 14.1075C6.85736 14.2476 6.66809 14.3274 6.46999 14.33Z" fill="#ffffff"/>
<path d="M13.77 14.33C13.5711 14.33 13.3803 14.251 13.2397 14.1103C13.099 13.9697 13.02 13.7789 13.02 13.58V10.42C13.02 10.2211 13.099 10.0303 13.2397 9.88967C13.3803 9.74902 13.5711 9.67 13.77 9.67C13.9689 9.67 14.1597 9.74902 14.3003 9.88967C14.441 10.0303 14.52 10.2211 14.52 10.42V13.58C14.5174 13.7781 14.4375 13.9674 14.2975 14.1075C14.1574 14.2476 13.9681 14.3274 13.77 14.33Z" fill="#ffffff"/>
<path d="M10.12 14.33C9.92108 14.33 9.73032 14.251 9.58967 14.1103C9.44901 13.9697 9.37 13.7789 9.37 13.58V10.42C9.37 10.2211 9.44901 10.0303 9.58967 9.88967C9.73032 9.74902 9.92108 9.67 10.12 9.67C10.3189 9.67 10.5097 9.74902 10.6503 9.88967C10.791 10.0303 10.87 10.2211 10.87 10.42V13.58C10.8674 13.7781 10.7876 13.9674 10.6475 14.1075C10.5074 14.2476 10.3181 14.3274 10.12 14.33Z" fill="#ffffff"/>
</svg>