<svg width="24" height="24" viewBox="0 0 24 24" fill="none" xmlns="http://www.w3.org/2000/svg">
<path fill-rule="evenodd" clip-rule="evenodd" d="M1.10502 14.0001C0.513395 14.0001 0.0511111 14.5109 0.10998 15.0996L0.189583 15.8956C0.649664 20.4964 4.52115 24.0001 9.14492 24.0001H12C12.5523 24.0001 13 23.5523 13 23.0001V19.1594C13 18.7594 12.7616 18.3979 12.3939 18.2403L10.715 17.5207C9.97792 17.2049 9.50003 16.4801 9.50003 15.6782C9.50003 15.5891 9.58556 15.525 9.67109 15.5499L17.8766 17.9432C19.8996 18.5333 22.0272 17.4185 22.6936 15.4193C23.1563 14.0312 22.5279 12.514 21.2191 11.8596L19.5838 11.0419C18.8685 10.6843 18.2319 10.1873 17.7115 9.5801L16.6973 8.39689C15.9374 7.5103 14.828 7.00005 13.6603 7.00005H12.8579C12.3644 7.00005 11.9446 6.63994 11.8696 6.15211L11.1501 1.47528C11.0878 1.07049 10.5919 0.908161 10.3023 1.19776L8.53218 2.9679C7.57636 3.92372 7.16794 5.29763 7.44641 6.62037L7.93562 8.94412C7.97756 9.14332 7.9577 9.35058 7.87871 9.53819L6.77301 12.1642C6.30461 13.2767 5.21513 14.0001 4.0081 14.0001H1.10502ZM13 9.00005C12.4477 9.00005 12 9.44777 12 10.0001C12 10.5523 12.4477 11.0001 13 11.0001H14C14.5523 11.0001 15 10.5523 15 10.0001C15 9.44777 14.5523 9.00005 14 9.00005H13Z" fill="white"/>
</svg>
