<svg width="24" height="24" viewBox="0 0 24 24" fill="none" xmlns="http://www.w3.org/2000/svg">
<path fill-rule="evenodd" clip-rule="evenodd" d="M7.27639 0.861834C7.10699 0.94653 6.99999 1.11966 6.99999 1.30905V11C5.89542 12.1046 5.89542 13.8955 6.99999 15L7.49999 15.5L9.0294 22L9.40929 23.6145C9.46243 23.8404 9.66397 24 9.896 24H11V22V17.5C11 17.2239 11.2239 17 11.5 17H12.5C12.7761 17 13 17.2239 13 17.5V22V24H14.104C14.336 24 14.5376 23.8404 14.5907 23.6145L14.9706 22L16.5 15.5L17 15C18.1046 13.8955 18.1046 12.1046 17 11V1.30905C17 1.11966 16.893 0.94653 16.7236 0.861834L15.6489 0.324497C15.3357 0.167878 14.9626 0.373487 14.9278 0.721959L14.5 5.00003H12H9.49999L9.07219 0.721959C9.03734 0.373487 8.6643 0.167878 8.35106 0.324497L7.27639 0.861834ZM8.24333 12.1956L7.5 12L7.38813 12.6712C7.18495 13.8903 8.12504 15 9.36092 15H10L9.67912 13.663C9.50723 12.9468 8.95562 12.3831 8.24333 12.1956ZM16.5 12L15.7567 12.1956C15.0444 12.3831 14.4928 12.9468 14.3209 13.663L14 15H14.6391C15.875 15 16.815 13.8903 16.6119 12.6712L16.5 12ZM4.35407 17C3.53626 17 2.80084 17.4979 2.49711 18.2572L1 22H7.5L6.5 17H4.35407ZM17.5 17L16.5 22H23L21.5029 18.2572C21.1992 17.4979 20.4637 17 19.6459 17H17.5Z" fill="white"/>
</svg>
