<?xml version="1.0" encoding="UTF-8"?>
<svg xmlns="http://www.w3.org/2000/svg" viewBox="0 0 24 24" width="24" height="24">
<path fill="#fff" d="m18.5,0H5.5C2.467,0,0,2.467,0,5.5v9c0,3.033,2.467,5.5,5.5,5.5h1.241l3.598,3.031c.479.425,1.08.635,1.674.635.583,0,1.159-.202,1.607-.6l3.708-3.066h1.172c3.033,0,5.5-2.467,5.5-5.5V5.5c0-3.033-2.467-5.5-5.5-5.5Zm2.5,14.5c0,1.378-1.122,2.5-2.5,2.5h-1.711c-.349,0-.687.122-.956.344l-3.83,3.167-3.749-3.158c-.271-.228-.613-.353-.966-.353h-1.789c-1.378,0-2.5-1.122-2.5-2.5V5.5c0-1.378,1.122-2.5,2.5-2.5h13c1.378,0,2.5,1.122,2.5,2.5v9Zm-4-4.5c0,.829-.671,1.5-1.5,1.5h-2v2c0,.829-.671,1.5-1.5,1.5s-1.5-.671-1.5-1.5v-2h-2c-.829,0-1.5-.671-1.5-1.5s.671-1.5,1.5-1.5h2v-2c0-.829.671-1.5,1.5-1.5s1.5.671,1.5,1.5v2h2c.829,0,1.5.671,1.5,1.5Z"/></svg>
