<svg width="24" height="24" viewBox="0 0 24 24" fill="none" xmlns="http://www.w3.org/2000/svg">
<path fill-rule="evenodd" clip-rule="evenodd" d="M17.2148 7.75H18.2505C19.3898 7.75 20.3219 8.68214 20.3219 9.82143V21.1786C20.3219 22.3179 19.3898 23.25 18.2505 23.25H5.82192C4.68263 23.25 3.75049 22.3179 3.75049 21.1786V9.82143C3.75049 8.68214 4.68263 7.75 5.82192 7.75H6.85763V5.67857C6.85763 2.82 9.17763 0.5 12.0362 0.5C14.8948 0.5 17.2148 2.82 17.2148 5.67857V7.75ZM8.82549 5.67857V7.75H15.2469V5.67857C15.2469 3.9075 13.8073 2.46786 12.0362 2.46786C10.2651 2.46786 8.82549 3.9075 8.82549 5.67857ZM15.5005 15.5251L12.0005 12.0251L8.50049 15.5251L12.0005 19.0251L15.5005 15.5251Z" fill="white"/>
</svg>
