<svg width="24" height="24" viewBox="0 0 24 24" fill="none" xmlns="http://www.w3.org/2000/svg">
<path fill-rule="evenodd" clip-rule="evenodd" d="M3 4.99995H5.48002C6.1493 4.99995 6.80788 4.83201 7.39543 4.51153L9.12689 3.5671C10.9178 2.59026 13.0822 2.59026 14.8731 3.5671L16.6046 4.51153C17.1921 4.83201 17.8507 4.99995 18.52 4.99995H21V6.33328C21 8.06424 21.5614 9.74851 22.6 11.1333L24 12.9999L23.9642 13.3727C23.6001 17.1586 21.2256 20.4552 17.75 21.9999L19.3308 19.1258C20.0235 17.8664 19.8008 16.3008 18.7844 15.2844L18.6549 15.1549C17.7671 14.267 16.2466 14.7738 16.069 16.0169C16.0237 16.3338 15.8993 16.6342 15.7072 16.8903L14.5 18.4999V16.4999C12.8951 17.1419 11.1049 17.1419 9.5 16.4999V18.4999L8.29279 16.8903C8.1007 16.6342 7.97626 16.3338 7.93099 16.0169C7.75341 14.7738 6.23294 14.267 5.34505 15.1549L5.21555 15.2844C4.19919 16.3008 3.97652 17.8664 4.66921 19.1258L6.25 21.9999C2.77439 20.4552 0.399874 17.1586 0.035839 13.3727L0 12.9999L1.4 11.1333C2.43858 9.74851 3 8.06424 3 6.33328V4.99995ZM6 9L7.63756 9.30704C8.68745 9.5039 9.55348 10.2442 9.91133 11.2506L10 11.5C8.50776 12.6192 6.36251 11.7188 6.11598 9.86989L6 9ZM16.3624 9.30704L18 9L17.884 9.86989C17.6375 11.7188 15.4922 12.6192 14 11.5L14.0887 11.2506C14.4465 10.2442 15.3125 9.5039 16.3624 9.30704Z" fill="white"/>
</svg>
