<?xml version="1.0" encoding="UTF-8"?>
<svg xmlns="http://www.w3.org/2000/svg" id="Layer_1" data-name="Layer 1" viewBox="0 0 24 24" fill="#FFFFFF">
  <path d="m10.5,8c0-.552.672-1,1.5-1s1.5.448,1.5,1-.672,1-1.5,1-1.5-.448-1.5-1Zm12.339,7.141c1.347,1.238,1.501,3.411.349,4.946l-.776,1.034c-1.369,1.825-3.548,2.914-5.829,2.914H7.417c-2.281,0-4.46-1.089-5.829-2.913l-.775-1.034c-1.152-1.535-.999-3.709.349-4.948.387-.356.844-.618,1.333-.779l-1.795-2.603c-.557-.74-.801-1.693-.664-2.65.137-.957.638-1.804,1.411-2.384,1.096-.822,2.503-.911,3.67-.38.111-.571.304-1.115.565-1.624-.947-1.132-.902-2.813.162-3.876,1.125-1.125,2.949-1.125,4.074,0,.136.136.233.261.299.378.57-.14,1.166-.222,1.783-.222.613,0,1.205.081,1.772.219.051-.076.11-.155.185-.24,1.05-1.195,2.871-1.312,4.066-.262,1.178,1.036,1.303,2.817.3,4.012.26.509.451,1.052.561,1.623,1.173-.537,2.575-.447,3.667.37.774.58,1.275,1.427,1.412,2.384.137.958-.107,1.911-.688,2.685l-1.773,2.572c.49.16.948.421,1.336.778ZM12,3c-2.757,0-5,2.019-5,4.5s2.243,4.5,5,4.5,5-2.019,5-4.5-2.243-4.5-5-4.5Zm-4.107,19.035c-.297-1.777-1.274-3.099-1.286-3.114l-1.671-2.065c-.296-.395-.789-.677-1.322-.677-.406,0-.792.151-1.099.434-.601.552-.646,1.552-.103,2.276l.775,1.033c.993,1.323,2.574,2.113,4.229,2.113h.476Zm7.942-4.617l1.714-1.867c.35-.472.866-.839,1.45-1.079l2.654-3.848c.283-.379.392-.805.331-1.233-.062-.429-.286-.807-.631-1.066-.716-.532-1.731-.389-2.267.324,0,0-.299.429-.305.437-.765,2.819-3.511,4.915-6.781,4.915s-6.018-2.098-6.782-4.919c-.003-.004-.325-.462-.325-.462-.514-.687-1.532-.831-2.246-.296-.714.536-.859,1.553-.324,2.267l2.68,3.886c.59.247,1.12.63,1.51,1.151l1.671,2.065c.083.11,1.417,1.914,1.729,4.343h4.121c.221-3.002,1.441-4.298,1.8-4.617Zm5.65-.805c-.345-.318-.787-.461-1.253-.428-.461.043-.869.271-1.147.642,0,0-1.896,2.064-1.939,2.099.001,0-.898.817-1.105,3.109h.542c1.655,0,3.236-.79,4.229-2.114l.776-1.034c.542-.724.497-1.722-.103-2.273Z"/>
</svg>
