<svg width="24" height="24" viewBox="0 0 24 24" fill="none" xmlns="http://www.w3.org/2000/svg">
<path fill-rule="evenodd" clip-rule="evenodd" d="M12 20C10.8026 20 9.73635 19.242 9.34296 18.111L6.6591 10.3949C6.26019 9.24799 6.59195 7.97377 7.49949 7.16706L9.5074 5.38225C9.99074 4.95262 9.90183 4.17367 9.33411 3.86401C9.1969 3.78916 9.0431 3.74995 8.8868 3.74995H6.64054C6.3532 3.74995 6.23024 3.38496 6.45901 3.2111L9.57967 0.839399C11.0101 -0.247736 12.9899 -0.247736 14.4203 0.839399L17.541 3.2111C17.7698 3.38496 17.6468 3.74995 17.3595 3.74995H15.1132C14.9569 3.74995 14.8031 3.78916 14.6659 3.86401C14.0982 4.17367 14.0093 4.95262 14.4926 5.38225L16.5005 7.16706C17.408 7.97377 17.7398 9.24799 17.3409 10.3948L14.657 18.111C14.2637 19.242 13.1974 20 12 20ZM5.72361 22.5528C5.893 22.214 6.23926 22 6.61803 22H17.382C17.7607 22 18.107 22.214 18.2764 22.5528L19 24H5L5.72361 22.5528ZM12 3C11.4477 3 11 3.44771 11 4V6C11 6.55228 11.4477 7 12 7C12.5523 7 13 6.55228 13 6V4C13 3.44771 12.5523 3 12 3Z" fill="white"/>
</svg>
