<svg viewBox="0 0 24 24" fill="white">
  <path d="m20.467,17.298c-.021-.029-1.557-1.814-1.557-1.814.32-.235.589-.544.781-.91.462-.88.399-1.935-.166-2.753-.025-.037-1.885-2.091-1.885-2.091.458-.231.839-.602,1.083-1.073.42-.812.353-1.779-.176-2.526-.021-.029-4.664-5.284-4.664-5.284-.95-1.074-2.82-1.074-3.771,0,0,0-4.643,5.255-4.664,5.284-.528.747-.596,1.715-.176,2.526.244.472.626.842,1.083,1.073,0,0-1.859,2.054-1.885,2.091-.564.818-.627,1.873-.166,2.753.192.366.461.675.781.91,0,0-1.537,1.785-1.557,1.814-.634.921-.705,2.108-.185,3.098s1.538,1.604,2.656,1.604h4.997v1c0,.553.448,1,1,1s1-.447,1-1v-1h4.997c1.118,0,2.136-.615,2.656-1.604s.449-2.177-.185-3.098Zm-1.585,2.167c-.084.161-.34.535-.885.535h-4.997v-9c0-.553-.448-1-1-1s-1,.447-1,1v9h-4.997c-.545,0-.801-.374-.885-.535-.082-.156-.238-.56.037-.994l2.429-2.817c.255-.297.314-.715.152-1.07-.163-.355-.518-.583-.909-.583h-.157c-.364,0-.534-.249-.59-.356-.053-.102-.154-.361.013-.644l3.02-3.328c.266-.293.334-.715.173-1.077-.16-.361-.519-.595-.914-.595h-.868c-.284,0-.41-.185-.451-.264-.042-.082-.095-.242.011-.418l4.551-5.148c.131-.147.299-.17.387-.17s.256.022.387.17l4.551,5.148c.105.176.053.336.011.418-.041.079-.167.264-.451.264h-.868c-.396,0-.754.233-.914.595-.161.362-.092.784.173,1.077l3.02,3.328c.167.282.066.542.013.644-.057.107-.227.356-.59.356h-.157c-.391,0-.746.228-.909.583-.163.355-.104.773.152,1.07l2.429,2.817c.275.435.119.838.037.994Z"/>
</svg>
