<svg width="20" height="20" viewBox="0 0 24 24" fill="none" xmlns="http://www.w3.org/2000/svg">
<path d="M2.23713 16.0439C2.05692 16.8318 2.07967 17.6525 2.30324 18.4292C2.52682 19.2059 2.94389 19.9131 3.5154 20.4846C4.0869 21.0561 4.79413 21.4732 5.57082 21.6968C6.34752 21.9203 7.16825 21.9431 7.95614 21.7629C8.38563 22.4477 8.98198 23.0122 9.68929 23.4034C10.3966 23.7947 11.1917 24 12 24C12.8083 24 13.6034 23.7947 14.3107 23.4034C15.018 23.0122 15.6144 22.4477 16.0439 21.7629C16.8318 21.9431 17.6525 21.9203 18.4292 21.6968C19.2059 21.4732 19.9131 21.0561 20.4846 20.4846C21.0561 19.9131 21.4732 19.2059 21.6968 18.4292C21.9203 17.6525 21.9431 16.8318 21.7629 16.0439C22.4477 15.6144 23.0122 15.018 23.4034 14.3107C23.7947 13.6034 24 12.8083 24 12C24 11.1917 23.7947 10.3966 23.4034 9.68929C23.0122 8.98198 22.4477 8.38563 21.7629 7.95614C21.9431 7.16825 21.9203 6.34752 21.6968 5.57082C21.4732 4.79413 21.0561 4.0869 20.4846 3.5154C19.9131 2.94389 19.2059 2.52682 18.4292 2.30324C17.6525 2.07967 16.8318 2.05692 16.0439 2.23713C15.6144 1.55235 15.018 0.98785 14.3107 0.596559C13.6034 0.205268 12.8083 0 12 0C11.1917 0 10.3966 0.205268 9.68929 0.596559C8.98198 0.98785 8.38563 1.55235 7.95614 2.23713C7.16825 2.05692 6.34752 2.07967 5.57082 2.30324C4.79413 2.52682 4.0869 2.94389 3.5154 3.5154C2.94389 4.0869 2.52682 4.79413 2.30324 5.57082C2.07967 6.34752 2.05692 7.16825 2.23713 7.95614C1.55235 8.38563 0.98785 8.98198 0.596559 9.68929C0.205268 10.3966 0 11.1917 0 12C0 12.8083 0.205268 13.6034 0.596559 14.3107C0.98785 15.018 1.55235 15.6144 2.23713 16.0439ZM4.09346 9.72008C4.26111 9.6678 4.41524 9.57936 4.54497 9.461C4.6747 9.34265 4.77688 9.19726 4.84428 9.0351C4.91169 8.87295 4.94268 8.69797 4.93507 8.52252C4.92746 8.34708 4.88143 8.17545 4.80024 8.01973C4.55723 7.56971 4.46593 7.05328 4.5399 6.54721C4.61387 6.04114 4.84916 5.57245 5.21081 5.21081C5.57245 4.84916 6.04114 4.61387 6.54721 4.5399C7.05328 4.46593 7.56971 4.55723 8.01973 4.80024C8.1756 4.88209 8.34756 4.92864 8.52343 4.93659C8.69929 4.94454 8.87476 4.9137 9.03737 4.84625C9.19998 4.7788 9.34576 4.67639 9.46437 4.5463C9.58298 4.4162 9.6715 4.2616 9.72368 4.09346C9.87087 3.60423 10.1718 3.17543 10.5818 2.87063C10.9918 2.56582 11.4891 2.40122 12 2.40122C12.5109 2.40122 13.0082 2.56582 13.4182 2.87063C13.8282 3.17543 14.1291 3.60423 14.2763 4.09346C14.3285 4.2616 14.417 4.4162 14.5356 4.5463C14.6542 4.67639 14.8 4.7788 14.9626 4.84625C15.1252 4.9137 15.3007 4.94454 15.4766 4.93659C15.6524 4.92864 15.8244 4.88209 15.9803 4.80024C16.4303 4.55723 16.9467 4.46593 17.4528 4.5399C17.9589 4.61387 18.4275 4.84916 18.7892 5.21081C19.1508 5.57245 19.3861 6.04114 19.4601 6.54721C19.5341 7.05328 19.4428 7.56971 19.1998 8.01973C19.1179 8.1756 19.0714 8.34756 19.0634 8.52343C19.0555 8.69929 19.0863 8.87476 19.1538 9.03737C19.2212 9.19998 19.3236 9.34576 19.4537 9.46437C19.5838 9.58298 19.7384 9.6715 19.9065 9.72368C20.396 9.8705 20.825 10.1712 21.13 10.5811C21.435 10.9911 21.5998 11.4884 21.5998 11.9994C21.5998 12.5104 21.435 13.0077 21.13 13.4177C20.825 13.8276 20.396 14.1283 19.9065 14.2751C19.7384 14.3273 19.5838 14.4158 19.4537 14.5344C19.3236 14.653 19.2212 14.7988 19.1538 14.9614C19.0863 15.124 19.0555 15.2995 19.0634 15.4754C19.0714 15.6512 19.1179 15.8232 19.1998 15.9791C19.4429 16.429 19.5344 16.9454 19.4607 17.4515C19.3869 17.9576 19.1518 18.4264 18.7902 18.7881C18.4287 19.1499 17.9601 19.3854 17.4541 19.4596C16.948 19.5337 16.4316 19.4426 15.9815 19.1998C15.8256 19.1177 15.6536 19.0709 15.4777 19.0628C15.3018 19.0546 15.1262 19.0853 14.9634 19.1527C14.8007 19.22 14.6547 19.3223 14.536 19.4524C14.4172 19.5825 14.3286 19.7371 14.2763 19.9053C14.1298 20.3952 13.8292 20.8248 13.4191 21.1302C13.009 21.4356 12.5113 21.6006 12 21.6006C11.4887 21.6006 10.991 21.4356 10.5809 21.1302C10.1708 20.8248 9.87017 20.3952 9.72368 19.9053C9.67141 19.7371 9.58275 19.5825 9.464 19.4524C9.34526 19.3223 9.19933 19.22 9.03658 19.1527C8.87383 19.0853 8.69825 19.0546 8.52231 19.0628C8.34636 19.0709 8.17437 19.1177 8.01853 19.1998C7.56842 19.4426 7.05195 19.5337 6.54591 19.4596C6.03987 19.3854 5.57127 19.1499 5.20976 18.7881C4.84825 18.4264 4.61313 17.9576 4.53935 17.4515C4.46557 16.9454 4.55706 16.429 4.80024 15.9791C4.88209 15.8232 4.92864 15.6512 4.93659 15.4754C4.94454 15.2995 4.9137 15.124 4.84625 14.9614C4.7788 14.7988 4.67639 14.653 4.5463 14.5344C4.4162 14.4158 4.2616 14.3273 4.09346 14.2751C3.60404 14.1283 3.175 13.8276 2.86998 13.4177C2.56497 13.0077 2.40024 12.5104 2.40024 11.9994C2.40024 11.4884 2.56497 10.9911 2.86998 10.5811C3.175 10.1712 3.60404 9.8705 4.09346 9.72368V9.72008ZM9.60008 12C9.60008 11.5253 9.74083 11.0613 10.0045 10.6667C10.2682 10.272 10.6431 9.96441 11.0816 9.78276C11.5201 9.60112 12.0027 9.55359 12.4682 9.64619C12.9337 9.7388 13.3614 9.96737 13.697 10.303C14.0326 10.6386 14.2612 11.0663 14.3538 11.5318C14.4464 11.9973 14.3989 12.4799 14.2172 12.9184C14.0356 13.3569 13.728 13.7318 13.3333 13.9955C12.9387 14.2592 12.4747 14.3999 12 14.3999C11.3635 14.3999 10.7531 14.1471 10.303 13.697C9.85293 13.2469 9.60008 12.6365 9.60008 12Z" fill="white"/>
</svg>
