<?xml version="1.0" encoding="iso-8859-1"?>
<!-- Uploaded to: SVG Repo, www.svgrepo.com, Generator: SVG Repo Mixer Tools -->
<svg fill="#FFFFFF" height="800px" width="800px" version="1.1" id="Capa_1" xmlns="http://www.w3.org/2000/svg" xmlns:xlink="http://www.w3.org/1999/xlink" 
	 viewBox="0 0 490 490" xml:space="preserve">
<g>
	<path d="M114.808,322.637c-3.91-3.931-10.873-3.931-14.782,0L2.607,428.892c-3.634,4.123-3.447,10.355,0.427,14.243l43.581,43.813
		c4.206,3.993,10.601,3.993,14.325,0.438l105.701-97.938c4.047-4.063,4.047-10.64,0-14.703L114.808,322.637z M54.439,465.25
		l-29.735-29.893l50.397-57.18l36.215,36.41L54.439,465.25z M126.477,400.261L89.35,362.935l18.066-18.164l37.127,37.326
		L126.477,400.261z"/>
	<path d="M351.47,304.704c-29.016,0-52.537,23.523-52.537,52.54c0,29.016,23.521,52.539,52.537,52.539
		c29.016,0,52.537-23.523,52.537-52.539C404.007,328.227,380.485,304.704,351.47,304.704z M351.47,389.014
		c-17.545,0-31.769-14.224-31.769-31.77c0-17.546,14.224-31.771,31.769-31.771c17.546,0,31.769,14.225,31.769,31.771
		C383.239,374.791,369.015,389.014,351.47,389.014z"/>
	<path d="M378.771,157.05c-29.016,0-52.537,23.523-52.537,52.54c0,29.016,23.522,52.539,52.537,52.539
		c29.016,0,52.537-23.523,52.537-52.539C431.308,180.573,407.787,157.05,378.771,157.05z M378.771,241.36
		c-17.545,0-31.769-14.224-31.769-31.77s14.224-31.771,31.769-31.771c17.546,0,31.769,14.225,31.769,31.771
		S396.317,241.36,378.771,241.36z"/>
	<path d="M134.568,86.664c-29.016,0-52.537,23.523-52.537,52.54c0,29.016,23.522,52.539,52.537,52.539s52.537-23.523,52.537-52.539
		C187.105,110.187,163.583,86.664,134.568,86.664z M134.568,170.974c-17.545,0-31.769-14.224-31.769-31.77
		c0-17.546,14.224-31.771,31.769-31.771c17.546,0,31.769,14.225,31.769,31.771C166.337,156.75,152.113,170.974,134.568,170.974z"/>
	<path d="M333.981,111.759c0-29.017-23.522-52.54-52.537-52.54s-52.537,23.523-52.537,52.54c0,29.016,23.521,52.539,52.537,52.539
		S333.981,140.775,333.981,111.759z M281.444,143.529c-17.545,0-31.769-14.224-31.769-31.77c0-17.546,14.223-31.771,31.769-31.771
		c17.546,0,31.769,14.225,31.769,31.771C313.213,129.305,298.99,143.529,281.444,143.529z"/>
	<path d="M416.848,73.562C369.658,26.126,306.918,0,240.185,0C173.452,0,110.711,26.126,63.521,73.562
		c-19.451,19.549-35.456,42.001-47.567,66.711c-12.732,25.984-11.388,56.538,3.599,81.749c15.384,25.862,42.369,42.06,72.189,43.313
		l44.826,1.888c-7.136,13.057-11.684,27.586-13.355,43.096c-0.337,3.125,0.753,6.241,2.973,8.471l44.294,44.524
		c2.001,2.006,4.673,3.075,7.396,3.075c1.405,0,2.83-0.286,4.174-0.876c16.679-7.299,31.149-20.443,40.893-35.806
		c0.075,0.913,0.135,1.827,0.173,2.746l2.825,67.84c1.95,46.825,41.107,84.925,87.288,84.925c12.91,0,25.438-2.962,37.238-8.796
		c24.593-12.189,46.925-28.275,66.381-47.834C464.023,381.171,490,318.126,490,251.069C490,184.023,464.023,120.979,416.848,73.562z
		 M215.119,288.731c-0.127,19.834-15.424,42.957-35.202,54.503l-35.333-35.514c3.08-19.63,11.82-37.121,25.453-50.836
		c14.849-14.927,48.452-19.732,71.706-21.23C228.889,249.084,215.246,268.164,215.119,288.731z M402.065,413.884
		c-17.837,17.93-38.312,32.684-60.853,43.842c-8.893,4.41-18.311,6.638-27.983,6.638c-35.15,0-64.96-29.129-66.457-64.948
		l-2.825-67.841c-0.498-11.993-3.39-23.549-8.593-34.393c0.022-0.161,0.036-0.319,0.057-0.479c0.18-1.373,0.315-2.743,0.407-4.111
		c0.008-0.113,0.02-0.228,0.028-0.341c0,0-0.001,0.001-0.002,0.001c0.07-1.132,0.119-2.263,0.126-3.388
		c0.143-22.705,30.18-46.323,40.037-55.603c6.191-5.829,11.053-19.111-14.518-19.111c-29.261,0-81.974,3.636-106.236,28.031
		c-1.54,1.548-3.009,3.149-4.446,4.773l-58.188-2.452c-22.76-0.958-43.372-13.349-55.142-33.142
		c-11.545-19.416-12.568-41.979-2.799-61.905c11.107-22.674,25.783-43.261,43.627-61.191
		c43.244-43.476,100.738-67.412,161.88-67.412c61.143,0,118.636,23.937,161.88,67.412c43.261,43.486,67.084,101.308,67.084,162.804
		C469.149,312.577,445.326,370.397,402.065,413.884z"/>
</g>
</svg>