<svg width="24" height="24" viewBox="0 0 24 24" fill="none" xmlns="http://www.w3.org/2000/svg">
<circle cx="9.5" cy="7.5" r="1.5" fill="#fff"/>
<circle cx="6.5" cy="11.5" r="1.5" fill="#fff"/>
<circle cx="14.5" cy="7.5" r="1.5" fill="#fff"/>
<circle cx="17.5" cy="11.5" r="1.5" fill="#fff"/>
<path d="M12 23C10.4967 23 9.07583 22.7113 7.7375 22.1338C6.39917 21.5562 5.23042 20.7679 4.23125 19.7688C3.23208 18.7696 2.44375 17.6008 1.86625 16.2625C1.28875 14.9242 1 13.5033 1 12C1 10.4783 1.29792 9.04833 1.89375 7.71C2.48958 6.37167 3.29625 5.2075 4.31375 4.2175C5.33125 3.2275 6.51833 2.44375 7.875 1.86625C9.23167 1.28875 10.68 1 12.22 1C13.6867 1 15.0708 1.25208 16.3725 1.75625C17.6742 2.26042 18.8154 2.95708 19.7962 3.84625C20.7771 4.73542 21.5562 5.78958 22.1338 7.00875C22.7113 8.22792 23 9.54333 23 10.955C23 13.0633 22.3583 14.6813 21.075 15.8088C19.7917 16.9363 18.2333 17.5 16.4 17.5H14.365C14.2 17.5 14.0854 17.5458 14.0213 17.6375C13.9571 17.7292 13.925 17.83 13.925 17.94C13.925 18.16 14.0625 18.4763 14.3375 18.8888C14.6125 19.3013 14.75 19.7733 14.75 20.305C14.75 21.2217 14.4979 21.9 13.9938 22.34C13.4896 22.78 12.825 23 12 23ZM12 20.8C12.165 20.8 12.2979 20.7542 12.3988 20.6625C12.4996 20.5708 12.55 20.4517 12.55 20.305C12.55 20.0483 12.4125 19.7458 12.1375 19.3975C11.8625 19.0492 11.725 18.5267 11.725 17.83C11.725 17.06 11.9908 16.4458 12.5225 15.9875C13.0542 15.5292 13.705 15.3 14.475 15.3H16.4C17.61 15.3 18.6458 14.9471 19.5075 14.2413C20.3692 13.5354 20.8 12.44 20.8 10.955C20.8 8.73667 19.9521 6.88958 18.2563 5.41375C16.5604 3.93792 14.5483 3.2 12.22 3.2C9.72667 3.2 7.6 4.0525 5.84 5.7575C4.08 7.4625 3.2 9.54333 3.2 12C3.2 14.4383 4.05708 16.5146 5.77125 18.2288C7.48542 19.9429 9.56167 20.8 12 20.8Z" fill="#fff"/>
</svg>
