<svg width="24" height="24" viewBox="0 0 24 24" fill="none" xmlns="http://www.w3.org/2000/svg">
<path d="M17.8726 14.0986C18.2636 13.7076 18.8956 13.7076 19.2866 14.0986L22.2417 17.0537C23.3586 18.1686 23.9994 19.716 23.9995 21.2959V23C23.9995 23.553 23.5525 24 22.9995 24H21.2964C19.6936 23.9999 18.1861 23.376 17.0542 22.2422L14.0981 19.2871C13.7071 18.8961 13.7071 18.264 14.0981 17.873C14.4892 17.4823 15.1213 17.4821 15.5122 17.873L18.4683 20.8281C19.2231 21.5839 20.2276 21.9999 21.2964 22H21.9995V21.2959C21.9994 20.242 21.5726 19.2117 20.8276 18.4678L17.8726 15.5117C17.482 15.1208 17.4821 14.4895 17.8726 14.0986ZM17.7368 1.07617C19.1658 -0.355828 21.4963 -0.355828 22.9263 1.07617C24.356 2.50512 24.356 4.83173 22.9263 6.26367L11.9878 17.2012C12.0707 18.71 11.5379 20.2456 10.3882 21.3955C8.53732 23.2464 2.84092 23.9367 2.59912 23.9648C2.50712 23.9758 2.4138 23.9814 2.3208 23.9814C1.7059 23.9814 1.12009 23.7407 0.681152 23.3008C0.175167 22.7948 -0.066909 22.0958 0.0170898 21.3828C0.255092 19.3529 1.10317 15.1145 2.604 13.6123C3.755 12.4623 5.29129 11.9277 6.80029 12.0107L17.7368 1.07617ZM6.49561 14.001C5.59776 14.0011 4.70195 14.3425 4.01807 15.0254C3.17614 15.8688 2.29641 19.1135 2.00244 21.6152C1.98657 21.7551 2.05327 21.8448 2.09424 21.8857C2.13621 21.9277 2.2289 21.9984 2.36377 21.9775C4.87777 21.6815 8.11914 20.8345 8.97314 19.9805L8.97412 19.9795C10.3398 18.6136 10.3398 16.3913 8.97412 15.0254C8.29012 14.3434 7.39361 14.001 6.49561 14.001ZM21.5112 2.48926C20.8612 1.83926 19.7999 1.83926 19.1499 2.48926L9.02393 12.6152C9.51492 12.8682 9.97621 13.2013 10.3872 13.6123C10.798 14.0232 11.1303 14.4838 11.3843 14.9746L21.5112 4.84863C22.1609 4.1977 22.1609 3.13921 21.5112 2.48926ZM1.07471 1.07422C2.50471 -0.354781 4.83216 -0.354804 6.26416 1.0752L9.90967 4.72168C10.3007 5.11267 10.3006 5.74474 9.90967 6.13574C9.51867 6.52674 8.88661 6.52674 8.49561 6.13574L4.8501 2.48926C4.2011 1.83926 3.14075 1.83926 2.48975 2.48926C1.83904 3.14017 1.83912 4.19864 2.48975 4.84961L6.13623 8.49609C6.52703 8.88707 6.52707 9.5192 6.13623 9.91016C5.9413 10.1051 5.68511 10.2031 5.4292 10.2031C5.17327 10.2031 4.91715 10.105 4.72217 9.91016L1.07471 6.2627C-0.355938 4.83273 -0.355012 2.50314 1.07471 1.07422Z" fill="white"/>
</svg>
