<svg width="24" height="24" viewBox="0 0 24 24" fill="none" xmlns="http://www.w3.org/2000/svg">
<path fill-rule="evenodd" clip-rule="evenodd" d="M6 3C6 2.44772 6.44772 2 7 2H17C17.5523 2 18 2.44772 18 3V11C18 11.5523 18.4477 12 19 12C19.5523 12 20 11.5523 20 11V3C20 1.34315 18.6569 0 17 0H7C5.34315 0 4 1.34315 4 3V11C4 11.5523 4.44772 12 5 12C5.55228 12 6 11.5523 6 11V3ZM6.89443 14.5528C6.64744 14.0588 6.04676 13.8586 5.55279 14.1056C5.05881 14.3526 4.85858 14.9532 5.10557 15.4472L6 17.2361V21C6 21.2652 6.10536 21.5196 6.29289 21.7071L8.29289 23.7071C8.48043 23.8946 8.73478 24 9 24H15C15.2652 24 15.5196 23.8946 15.7071 23.7071L17.7071 21.7071C17.8946 21.5196 18 21.2652 18 21V17V15C18 14.4477 17.5523 14 17 14C16.4477 14 16 14.4477 16 15V17V20.5858L14.5858 22H9.41421L8 20.5858V17C8 16.8448 7.96385 16.6916 7.89443 16.5528L6.89443 14.5528Z" fill="#FFFFFF"/>
<path fill-rule="evenodd" clip-rule="evenodd" d="M4.5547 12.832C5.01423 12.5257 5.1384 11.9048 4.83205 11.4453C4.5257 10.9858 3.90483 10.8616 3.4453 11.1679L0.4453 13.1679C0.167101 13.3534 0 13.6656 0 14V16C0 16.5523 0.447715 17 1 17C1.55228 17 2 16.5523 2 16V14.5352L4.5547 12.832ZM19.4453 12.832C18.9858 12.5257 18.8616 11.9048 19.1679 11.4453C19.4743 10.9858 20.0952 10.8616 20.5547 11.1679L23.5547 13.1679C23.8329 13.3534 24 13.6656 24 14V16C24 16.5523 23.5523 17 23 17C22.4477 17 22 16.5523 22 16V14.5352L19.4453 12.832Z" fill="#FFFFFF"/>
<path fill-rule="evenodd" clip-rule="evenodd" d="M8 13C8 12.4477 7.55228 12 7 12C6.44772 12 6 12.4477 6 13C6 13.5523 6.44772 14 7 14C7.55228 14 8 13.5523 8 13ZM7 10C8.65685 10 10 11.3431 10 13C10 14.6569 8.65685 16 7 16C5.34315 16 4 14.6569 4 13C4 11.3431 5.34315 10 7 10ZM18 13C18 12.4477 17.5523 12 17 12C16.4477 12 16 12.4477 16 13C16 13.5523 16.4477 14 17 14C17.5523 14 18 13.5523 18 13ZM17 10C18.6569 10 20 11.3431 20 13C20 14.6569 18.6569 16 17 16C15.3431 16 14 14.6569 14 13C14 11.3431 15.3431 10 17 10Z" fill="#FFFFFF"/>
<path d="M12 22V10L10 8V5H14V8" stroke="#FFFFFF" stroke-width="2" stroke-linecap="round" stroke-linejoin="round"/>
</svg>
