<svg width="24" height="24" viewBox="0 0 24 24" fill="none" xmlns="http://www.w3.org/2000/svg">
<path d="M19.0024 21.9976L15.0024 21.9976L15.0024 17.9976" stroke="white" stroke-width="2" stroke-linecap="round" stroke-linejoin="round"/>
<path d="M6.00244 1.99762L9.00244 1.99762L9.00244 4.99762" stroke="white" stroke-width="2" stroke-linecap="round" stroke-linejoin="round"/>
<path d="M14.9999 3.50762C16.4331 4.01479 17.7145 4.87675 18.7245 6.01309C19.7345 7.14942 20.4402 8.52309 20.7757 10.0059C21.1112 11.4887 21.0656 13.0324 20.6432 14.4928C20.2207 15.9532 19.4352 17.2829 18.3599 18.3576L14.9999 21.9976M8.99992 1.99762L5.63992 5.63762C4.56464 6.71237 3.77913 8.04199 3.3567 9.50243C2.93427 10.9629 2.88868 12.5065 3.22418 13.9893C3.55969 15.4722 4.26536 16.8458 5.27534 17.9822C6.28533 19.1185 7.56671 19.9805 8.99993 20.4876" stroke="white" stroke-width="2" stroke-linecap="round" stroke-linejoin="round"/>
</svg>
