<svg width="24" height="24" viewBox="0 0 24 24" fill="none" xmlns="http://www.w3.org/2000/svg">
<path d="M6 6L3 5L2 2L5 3L6 6ZM6 6L9 9M8 10L10 8M14 8L6.5 15.5M16 10L8.5 17.5M17 15H15V17L19 21C19.5523 21.5523 20.4477 21.5523 21 21C21.5523 20.4477 21.5523 19.5523 21 19L17 15ZM8 18L7.33333 21.3333L4 22L2 20.0952L2.66667 16.7143L6 16L8 18ZM18 10C20.2091 10 22 8.20914 22 6C22 5.71209 21.9696 5.43129 21.9118 5.16063C21.6221 6.22077 20.652 7 19.5 7C18.1193 7 17 5.88071 17 4.5C17 3.34797 17.7792 2.37793 18.8394 2.08821C18.5687 2.03042 18.2879 2 18 2C15.7909 2 14 3.79086 14 6C14 8.20914 15.7909 10 18 10Z" stroke="#FFFFFF" stroke-width="2"/>
</svg>
