<svg width="24" height="24" viewBox="0 0 24 24" fill="none" xmlns="http://www.w3.org/2000/svg">
<g clip-path="url(#clip0_3204_195)">
<path d="M15 11L4.5 21.5C3.94772 22.0523 3.05228 22.0523 2.5 21.5C1.94772 20.9477 1.94772 20.0523 2.5 19.5L13 9L15 11Z" stroke="#FFF" stroke-width="2" stroke-linecap="round"/>
<path d="M21.2071 21.7929L21.7929 21.2071C22.1834 20.8166 22.1834 20.1834 21.7929 19.7929L18.2929 16.2929C18.1054 16.1054 17.851 16 17.5858 16H16.4142C16.149 16 15.8946 16.1054 15.7071 16.2929C15.3166 16.6834 15.3166 17.3166 15.7071 17.7071L19.7929 21.7929C20.1834 22.1834 20.8166 22.1834 21.2071 21.7929Z" stroke="#FFF" stroke-width="2" stroke-linecap="round"/>
<path d="M8 8L6 6" stroke="#FFF" stroke-width="2" stroke-linecap="round"/>
<path d="M6 4V6H4L1.5 3L3 1.5L6 4Z" stroke="#FFF" stroke-width="2" stroke-linecap="round"/>
<path fill-rule="evenodd" clip-rule="evenodd" d="M19.7078 1.6345C20.1958 1.1465 20.0468 0.324421 19.3717 0.181179C17.4513 -0.226286 15.3697 0.315788 13.8781 1.8074C11.5349 4.15055 11.5349 7.94954 13.8781 10.2927C16.2212 12.6358 20.0202 12.6358 22.3634 10.2927C23.855 8.80107 24.3971 6.71949 23.9896 4.79907C23.8463 4.12396 23.0243 3.97492 22.5363 4.46293L20.242 6.75715C19.8515 7.14767 19.2184 7.14767 18.8278 6.75715L17.4136 5.34293C17.0231 4.95241 17.0231 4.31924 17.4136 3.92872L19.7078 1.6345Z" fill="#FFF"/>
</g>
<defs>
<clipPath id="clip0_3204_195">
<rect width="24" height="24" fill="white"/>
</clipPath>
</defs>
</svg>
